<svg xmlns="http://www.w3.org/2000/svg" xmlns:xlink="http://www.w3.org/1999/xlink" version="1.1" id="Layer_1" x="0px" y="0px" enable-background="new 0 0 1024 816" xml:space="preserve" viewBox="268.48 105.48 488.99 619.15">
<path fill="#000000" opacity="1.000000" stroke="none" d=" M534.999878,636.353149   C503.338440,636.354553 472.176971,636.365723 441.015533,636.350342   C431.830109,636.345825 427.965149,633.310791 425.952728,624.401978   C411.437347,560.142578 396.943726,495.878326 382.461090,431.611603   C380.841248,424.423431 382.125031,422.329895 389.415100,420.735168   C453.459320,406.725311 517.511780,392.753143 581.564880,378.783844   C600.749878,374.599854 619.940857,370.442932 639.136719,366.308899   C646.634827,364.694061 648.777405,366.029053 650.474182,373.409363   C652.859131,383.782410 655.156006,394.175720 657.493286,404.559753   C658.956360,411.059845 657.288330,413.788666 650.671387,415.244720   C629.376892,419.930420 608.071228,424.565491 586.764282,429.194275   C543.182007,438.662292 499.596008,448.113312 456.011658,457.571808   C451.004395,458.658447 445.997833,459.748230 441.041840,461.674500   C444.893311,461.674500 448.744751,461.674316 452.596222,461.674530   C517.585327,461.677917 582.574463,461.678253 647.563538,461.687897   C658.263062,461.689484 662.541016,465.671661 662.659424,476.313110   C662.865112,494.800720 662.867859,513.291016 662.876892,531.780212   C662.880249,538.681213 662.530334,538.931763 655.385803,538.935791   C636.555603,538.946472 617.725342,538.907776 598.895325,538.962891   C588.262695,538.993958 584.943726,543.951111 585.865234,554.528137   C587.923523,578.151855 615.739624,602.577698 642.611633,602.699280   C647.777344,602.722656 652.948669,602.876892 658.106934,602.685974   C661.594666,602.556824 662.971252,604.051941 662.904175,607.365356   C662.789490,613.027100 663.007202,618.710938 662.581055,624.347412   C661.981262,632.279785 657.458740,636.309082 649.477478,636.322388   C618.816040,636.373413 588.154480,636.350586 557.492920,636.354553   C550.161926,636.355469 542.830933,636.353516 534.999878,636.353149  M476.500122,549.424866   C465.183075,549.422119 453.865936,549.394226 442.549133,549.442261   C440.739746,549.449951 438.848938,549.524902 437.140198,550.044067   C433.403320,551.179260 431.099457,553.810120 431.503998,557.817078   C431.900818,561.747192 434.525391,564.024719 438.413086,564.579224   C440.211212,564.835693 442.067505,564.713562 443.897430,564.713806   C475.851349,564.718018 507.805237,564.717468 539.759155,564.710693   C547.438354,564.709106 551.548279,561.968811 551.465271,556.942444   C551.386230,552.159973 547.221069,549.418213 539.910156,549.414978   C519.106812,549.405823 498.303497,549.420349 476.500122,549.424866  M489.494476,492.985443   C491.340607,490.762787 494.404236,488.990936 492.935364,485.388855   C491.405212,481.636444 487.930084,482.102386 484.794373,482.093933   C472.981445,482.062103 461.168243,482.108337 449.355621,482.040131   C446.406860,482.023102 443.850616,482.547272 441.643585,484.751923   C435.642120,490.746826 429.486267,496.586853 423.455780,502.553101   C421.565826,504.422943 419.560760,506.391907 421.006653,509.495453   C422.353577,512.386597 424.865540,512.759338 427.692200,512.747192   C440.004120,512.694275 452.317169,512.641357 464.627930,512.770081   C468.052094,512.805847 470.686462,511.728851 473.055817,509.310760   C478.294617,503.964203 483.670227,498.751648 489.494476,492.985443  M567.002686,500.502777   C569.947937,497.567871 572.937866,494.675934 575.821777,491.681915   C577.552429,489.885101 579.406616,488.011932 578.029663,485.135864   C576.743713,482.449982 574.321167,482.094574 571.713013,482.095703   C558.905273,482.101196 546.097595,482.091858 533.289856,482.085510   C531.246826,482.084503 529.334900,482.394867 527.775391,483.918915   C521.353333,490.195007 514.876892,496.415863 508.488800,502.726257   C506.492157,504.698639 505.277557,507.087158 506.670624,509.930359   C507.985321,512.613586 510.524933,512.736877 513.102295,512.730042   C521.252686,512.708252 529.495422,511.949921 537.532043,512.907288   C549.715576,514.358582 559.300476,510.956421 567.002686,500.502777  M516.500061,587.384521   C497.028473,587.385498 477.556824,587.359863 458.085327,587.402283   C451.539703,587.416565 448.111389,590.222717 448.137085,595.300232   C448.161713,600.164917 451.412323,602.699219 457.874023,602.704651   C485.666779,602.728088 513.459534,602.725586 541.252258,602.704285   C547.598633,602.699402 551.534851,599.668396 551.475525,594.975586   C551.419617,590.553711 547.443848,587.457214 541.464905,587.399536   C533.477295,587.322449 525.488464,587.383423 516.500061,587.384521  M641.563904,510.959167   C643.001343,509.305206 642.948364,507.262238 642.961121,505.276581   C642.996582,499.784790 642.864136,494.290405 642.983826,488.801086   C643.084961,484.164978 640.914124,482.063446 636.367920,482.083466   C629.211792,482.114990 622.054871,482.127228 614.899231,482.054474   C612.175964,482.026794 610.182129,483.225891 608.326355,485.066895   C602.537903,490.809204 596.661804,496.463013 590.855042,502.186981   C588.835205,504.178040 586.596436,506.190887 588.077332,509.496460   C589.497070,512.665344 592.368164,512.741455 595.282349,512.737366   C608.596619,512.718750 621.910828,512.734619 635.225098,512.724304   C637.211914,512.722778 639.251587,512.901062 641.563904,510.959167  M452.638458,419.318817   C449.881561,419.950928 447.145782,420.708008 444.361664,421.179230   C441.689545,421.631531 439.821411,422.959015 438.410065,425.241455   C434.818298,431.049927 431.065887,436.759735 427.515289,442.592712   C426.361664,444.487915 424.515045,446.455139 426.307983,448.966644   C428.111755,451.493378 430.733093,451.014709 433.154755,450.514801   C439.347382,449.236603 445.440857,447.023071 451.681458,446.522064   C466.954803,445.295898 477.241150,437.801300 483.092224,423.831512   C483.409515,423.073975 484.010101,422.440308 484.406616,421.709778   C485.561310,419.582520 487.608032,417.588501 485.659912,414.905884   C483.820679,412.373138 481.197571,412.963074 478.790619,413.481567   C470.332062,415.303528 461.905396,417.273621 452.638458,419.318817  M560.546936,415.081024   C563.134033,411.013275 565.747070,406.961700 568.297607,402.871155   C569.602356,400.778564 571.354431,398.671692 569.280579,396.094849   C567.512573,393.898071 565.263123,394.340363 562.892395,394.901978   C557.561707,396.164856 552.241882,397.957886 546.835266,398.326416   C529.558899,399.503967 517.904968,408.057556 511.269958,423.841644   C511.142914,424.143921 510.921387,424.406769 510.741577,424.686493   C509.513397,426.596436 508.649445,428.541870 510.334351,430.638763   C511.899994,432.587250 513.814758,432.655304 516.158569,432.107178   C526.185120,429.762512 536.200928,427.306427 546.325867,425.471375   C552.685303,424.318756 557.596008,421.861298 560.546936,415.081024  M616.195374,382.784912   C612.931580,383.751465 609.015442,383.317444 606.841614,386.700043   C602.620911,393.267456 598.506470,399.903412 594.374207,406.527252   C593.345459,408.176239 592.908325,409.886658 594.313599,411.600220   C595.578796,413.142975 597.074402,413.804291 599.134521,413.338196   C612.409912,410.334961 625.701233,407.402130 638.981323,404.419556   C643.003967,403.516083 644.427979,400.906555 643.521179,396.997894   C642.433777,392.310120 641.271973,387.639221 640.101685,382.971222   C639.152832,379.186462 636.870300,377.936432 633.014526,378.933441   C627.713745,380.304108 622.334534,381.371429 616.195374,382.784912  z"/>
<path fill="#000000" opacity="1.000000" stroke="none" d=" M457.000061,348.724426   C490.159027,348.726166 522.817993,348.706726 555.476929,348.738770   C572.869934,348.755859 589.510986,352.360260 605.383850,359.477844   C606.690063,360.063599 608.331299,360.272461 608.859070,362.647522   C601.413330,365.314117 593.556274,366.409851 585.886475,368.094025   C526.079712,381.226746 466.245667,394.235199 406.417755,407.271606   C400.078613,408.652893 393.736755,410.026794 387.375214,411.299438   C374.807983,413.813599 369.910461,421.496185 372.813049,434.315552   C377.990814,457.182922 383.184967,480.046570 388.363586,502.913757   C398.351532,547.017822 408.139099,591.168457 418.396698,635.209717   C423.830719,658.540771 430.078369,681.682190 435.956177,704.909851   C438.638824,715.511108 435.557922,720.585266 424.937897,723.071411   C398.139801,729.345032 369.580597,716.274292 358.071198,691.257202   C335.719635,642.673401 310.649628,595.423462 287.888123,547.057617   C268.995453,506.912598 273.039093,468.414459 299.619537,432.743561   C310.662659,417.923798 322.043610,403.310120 334.026367,389.246399   C354.050018,365.745361 379.883667,352.884399 410.562256,349.578125   C425.860138,347.929474 441.190552,349.136017 457.000061,348.724426  M368.663116,685.867188   C378.882324,705.565491 398.257172,715.245544 420.166565,711.790466   C423.524994,711.260864 424.811493,710.268311 423.873962,706.634155   C418.844879,687.138733 413.961853,667.605164 409.126007,648.060669   C408.353333,644.937805 407.053711,644.117859 403.830170,645.062378   C389.297791,649.320435 374.691650,653.326477 360.119873,657.450745   C359.024750,657.760620 357.859558,658.065613 356.810486,659.780945   C360.536316,668.009521 364.429169,676.607117 368.663116,685.867188  z"/>
<path fill="#000000" opacity="1.000000" stroke="none" d=" M537.372559,321.481079   C482.247528,348.545227 419.027069,323.807312 397.491882,267.050629   C395.207886,261.031036 394.344849,260.861664 389.992065,265.521240   C377.996796,278.362183 364.840637,289.978821 347.111053,293.390045   C321.246765,298.366394 297.176270,292.445679 275.303986,277.980042   C269.111542,273.884583 267.086670,265.877380 269.414459,258.773315   C271.757141,251.623749 278.209320,247.112747 286.683533,246.737183   C298.738831,246.202911 310.041962,243.133179 320.111511,236.350952   C336.906281,225.039062 345.651367,208.719925 348.727173,189.102402   C351.269348,172.888428 355.220001,157.128006 362.968964,142.539536   C379.799255,110.854172 404.320068,101.182068 437.361938,107.145256   C454.920135,110.314064 469.633728,118.511559 480.345184,133.050217   C482.713501,136.264725 485.661407,135.761383 488.796722,135.799377   C528.462036,136.279831 559.452148,152.625641 579.108826,187.440536   C606.089844,235.227982 587.238464,295.008087 537.372559,321.481079  M407.724609,259.076019   C422.105804,303.305542 466.386047,328.474304 511.473389,318.046478   C547.524292,309.708649 581.390991,271.202881 577.433044,242.765244   C543.918884,241.260941 521.248657,220.683563 500.309357,197.774628   C497.910248,198.946106 497.374359,200.799561 496.520355,202.363113   C489.155701,215.846786 479.698669,227.562332 467.205200,236.616867   C450.827545,248.486404 432.361298,254.371323 412.239990,255.348175   C410.158722,255.449219 407.618286,255.031586 407.724609,259.076019  z"/>
<path fill="#000000" opacity="1.000000" stroke="none" d=" M690.314392,442.708893   C707.956909,463.599579 725.470276,484.136993 742.758362,504.862305   C773.027405,541.149414 754.237305,593.913086 707.868896,602.897888   C697.492004,604.908630 686.942871,603.947205 676.460266,603.972961   C672.896118,603.981750 672.650879,601.636414 672.662415,598.888184   C672.710571,587.389954 672.673523,575.891357 672.673645,564.392883   C672.674011,534.896790 672.689636,505.400665 672.674622,475.904541   C672.666992,460.836121 663.928162,452.051483 648.753418,452.044159   C612.758240,452.026794 576.763062,452.104706 540.767883,452.123383   C539.072998,452.124268 537.212280,452.645477 534.748962,450.499969   C542.357239,448.788879 549.017456,447.245117 555.698181,445.796295   C588.389526,438.706512 621.081299,431.618713 653.786133,424.591553   C659.231262,423.421539 663.475525,420.504425 667.087097,415.357819   C675.070801,424.759918 682.577271,433.600067 690.314392,442.708893  z"/>
</svg>